<?xml version="1.0" encoding="UTF-8"?>
<svg version="1.1" xmlns="http://www.w3.org/2000/svg" width="256" height="256">
<path d="M0 0 C84.48 0 168.96 0 256 0 C256 84.48 256 168.96 256 256 C171.52 256 87.04 256 0 256 C0 171.52 0 87.04 0 0 Z " fill="#FEFEFE" transform="translate(0,0)"/>
<path d="M0 0 C3.63 0 7.26 0 11 0 C10.76990234 1.36318359 10.76990234 1.36318359 10.53515625 2.75390625 C9.76833184 8.12167713 9.64244689 13.52488616 9.4375 18.9375 C9.37272461 20.53561523 9.37272461 20.53561523 9.30664062 22.16601562 C9.20125511 24.77723443 9.09912912 27.38853746 9 30 C9.66 30 10.32 30 11 30 C10.85892253 31.45880109 10.71197585 32.91703551 10.5625 34.375 C10.48128906 35.18710938 10.40007812 35.99921875 10.31640625 36.8359375 C10 39 10 39 9 41 C1.08 41 -6.84 41 -15 41 C-15.33 38.69 -15.66 36.38 -16 34 C-17.98 34 -19.96 34 -22 34 C-22.33 36.31 -22.66 38.62 -23 41 C-27.29 41 -31.58 41 -36 41 C-32.57142857 20.14285714 -32.57142857 20.14285714 -29 13 C-29.66 13 -30.32 13 -31 13 C-30.85892253 11.54119891 -30.71197585 10.08296449 -30.5625 8.625 C-30.48128906 7.81289062 -30.40007812 7.00078125 -30.31640625 6.1640625 C-30 4 -30 4 -29 2 C-23.06 2 -17.12 2 -11 2 C-7.99690298 12.93985342 -5.38810356 23.91056166 -3 35 C-3.02320313 33.76765625 -3.04640625 32.5353125 -3.0703125 31.265625 C-3.21115656 20.47085596 -2.63013597 10.52054389 0 0 Z " fill="#FBFAFE" transform="translate(221,106)"/>
<path d="M0 0 C0.0992011 4.32326033 0.17162265 8.64591024 0.21972656 12.9699707 C0.23978825 14.43948921 0.26704478 15.90892841 0.30175781 17.37817383 C0.35052141 19.49580487 0.37302161 21.61237687 0.390625 23.73046875 C0.41157227 25.00301514 0.43251953 26.27556152 0.45410156 27.58666992 C-0.07903937 31.59411263 -1.13057996 33.20344898 -4 36 C-7.22282413 37.07427471 -9.61511153 37.1332963 -13 37.125 C-14.051875 37.12757813 -15.10375 37.13015625 -16.1875 37.1328125 C-19 37 -19 37 -22 36 C-21.505 31.545 -21.505 31.545 -21 27 C-20.01 27.33 -19.02 27.66 -18 28 C-15.66700175 28.03954234 -13.33291811 28.04401732 -11 28 C-11 27.34 -11 26.68 -11 26 C-12.60875 26.12375 -12.60875 26.12375 -14.25 26.25 C-18 26 -18 26 -20.3125 24.25 C-23.37170088 20.17106549 -24.44683869 17.44083535 -24.328125 12.16796875 C-23.75968643 8.41221389 -22.13381413 5.12284477 -20 2 C-17.84620337 0.92310169 -16.32074652 0.70230517 -13.9375 0.4375 C-13.22464844 0.35371094 -12.51179688 0.26992187 -11.77734375 0.18359375 C-7.85080476 -0.07596649 -3.93357281 -0.03370258 0 0 Z " fill="#631EEB" transform="translate(51,118)"/>
<path d="M0 0 C3.63 0 7.26 0 11 0 C10.76990234 1.36318359 10.76990234 1.36318359 10.53515625 2.75390625 C9.76833184 8.12167713 9.64244689 13.52488616 9.4375 18.9375 C9.37272461 20.53561523 9.37272461 20.53561523 9.30664062 22.16601562 C9.20125511 24.77723443 9.09912912 27.38853746 9 30 C9.66 30 10.32 30 11 30 C10.85892253 31.45880109 10.71197585 32.91703551 10.5625 34.375 C10.48128906 35.18710938 10.40007812 35.99921875 10.31640625 36.8359375 C10 39 10 39 9 41 C1.08 41 -6.84 41 -15 41 C-15.33 38.69 -15.66 36.38 -16 34 C-17.98 34 -19.96 34 -22 34 C-22.33 36.31 -22.66 38.62 -23 41 C-27.29 41 -31.58 41 -36 41 C-32.57142857 20.14285714 -32.57142857 20.14285714 -29 13 C-29.66 13 -30.32 13 -31 13 C-30.85892253 11.54119891 -30.71197585 10.08296449 -30.5625 8.625 C-30.48128906 7.81289062 -30.40007812 7.00078125 -30.31640625 6.1640625 C-30 4 -30 4 -29 2 C-23.06 2 -17.12 2 -11 2 C-7.99690298 12.93985342 -5.38810356 23.91056166 -3 35 C-3.02320313 33.76765625 -3.04640625 32.5353125 -3.0703125 31.265625 C-3.21115656 20.47085596 -2.63013597 10.52054389 0 0 Z M-28 3 C-28.33 5.97 -28.66 8.94 -29 12 C-28.34 12 -27.68 12 -27 12 C-27.38091797 13.16402344 -27.38091797 13.16402344 -27.76953125 14.3515625 C-30.36756516 22.50569141 -32.33925815 30.6082211 -34 39 C-30.7 39 -27.4 39 -24 39 C-24 37.02 -24 35.04 -24 33 C-21.03 33 -18.06 33 -15 33 C-14.67 34.98 -14.34 36.96 -14 39 C-10.7 39 -7.4 39 -4 39 C-4.24234375 37.90945312 -4.4846875 36.81890625 -4.734375 35.6953125 C-7.15625 24.796875 -9.578125 13.8984375 -12 3 C-17.28 3 -22.56 3 -28 3 Z " fill="#7C43EE" transform="translate(221,106)"/>
<path d="M0 0 C2.89740622 -0.13539281 5.78845621 -0.23426829 8.6875 -0.3125 C9.50412109 -0.35439453 10.32074219 -0.39628906 11.16210938 -0.43945312 C15.62929507 -0.52988199 17.39945109 -0.47624383 21.01953125 2.39453125 C24.95532702 7.57239275 24.61294313 12.65521035 24 19 C22.54974397 22.77640926 20.37259179 24.75160547 17 27 C14.66800612 27.07905064 12.33167378 27.08798769 10 27 C10 29.97 10 32.94 10 36 C6.7 36 3.4 36 0 36 C0 27.09 0 18.18 0 9 C-0.66 9 -1.32 9 -2 9 C-1.34 6.03 -0.68 3.06 0 0 Z " fill="#6420EB" transform="translate(100,119)"/>
<path d="M0 0 C3.3 0 6.6 0 10 0 C10.33 3.96 10.66 7.92 11 12 C12.8871875 11.87625 12.8871875 11.87625 14.8125 11.75 C16.95703125 11.609375 16.95703125 11.609375 19 12 C21.69016353 14.40193172 21.98610499 15.8362241 22.29296875 19.453125 C22.25816406 20.70609375 22.22335938 21.9590625 22.1875 23.25 C22.16042969 24.51328125 22.13335937 25.7765625 22.10546875 27.078125 C22.07066406 28.04234375 22.03585938 29.0065625 22 30 C22.66 30 23.32 30 24 30 C23.34 32.97 22.68 35.94 22 39 C19.03 39 16.06 39 13 39 C12.67 33.39 12.34 27.78 12 22 C11.34 21.67 10.68 21.34 10 21 C10 26.94 10 32.88 10 39 C6.7 39 3.4 39 0 39 C0 29.43 0 19.86 0 10 C-0.66 10 -1.32 10 -2 10 C-1.34 6.7 -0.68 3.4 0 0 Z " fill="#631FEB" transform="translate(127,107)"/>
<path d="M0 0 C0.19756803 3.72870453 0.38128099 7.45796796 0.5625 11.1875 C0.61857422 12.24259766 0.67464844 13.29769531 0.73242188 14.38476562 C0.78076172 15.40634766 0.82910156 16.42792969 0.87890625 17.48046875 C0.9260376 18.41785889 0.97316895 19.35524902 1.02172852 20.32104492 C0.99989432 23.01302932 0.61586406 25.38516976 0 28 C-2.89809389 28.16250994 -5.78704851 28.28107636 -8.6875 28.375 C-9.91243164 28.45041016 -9.91243164 28.45041016 -11.16210938 28.52734375 C-17.11123812 28.671857 -17.11123812 28.671857 -19.66259766 26.74316406 C-23.99880041 21.69700368 -24.3351206 17.10321132 -24.29296875 10.73828125 C-23.86669266 6.75402074 -22.64850467 4.96009345 -20 2 C-17.84620337 0.92310169 -16.32074652 0.70230517 -13.9375 0.4375 C-13.22464844 0.35371094 -12.51179688 0.26992187 -11.77734375 0.18359375 C-7.85080476 -0.07596649 -3.93357281 -0.03370258 0 0 Z " fill="#6421EB" transform="translate(96,118)"/>
<path d="M0 0 C0.95024979 3.69541586 0.95024979 6.30458414 0 10 C-1.32 10.33 -2.64 10.66 -4 11 C-4 13.31 -4 15.62 -4 18 C-2.68 18.33 -1.36 18.66 0 19 C0.33 21.97 0.66 24.94 1 28 C-7.20098224 28.6120136 -7.20098224 28.6120136 -10.9375 25.75 C-15.07418674 20.23441768 -15.88612412 15.84044592 -15 9 C-11.32245444 1.7762498 -8.05900326 -0.4649425 0 0 Z " fill="#6522EB" transform="translate(181,118)"/>
<path d="M0 0 C3.3 0 6.6 0 10 0 C10.33 3.96 10.66 7.92 11 12 C12.8871875 11.87625 12.8871875 11.87625 14.8125 11.75 C16.95703125 11.609375 16.95703125 11.609375 19 12 C21.69016353 14.40193172 21.98610499 15.8362241 22.29296875 19.453125 C22.25816406 20.70609375 22.22335938 21.9590625 22.1875 23.25 C22.16042969 24.51328125 22.13335937 25.7765625 22.10546875 27.078125 C22.07066406 28.04234375 22.03585938 29.0065625 22 30 C22.66 30 23.32 30 24 30 C23.34 32.97 22.68 35.94 22 39 C19.03 39 16.06 39 13 39 C12.67 33.39 12.34 27.78 12 22 C11.34 21.67 10.68 21.34 10 21 C10 26.94 10 32.88 10 39 C9.67 39 9.34 39 9 39 C9 26.46 9 13.92 9 1 C6.03 1 3.06 1 0 1 C0 0.67 0 0.34 0 0 Z " fill="#6A29EC" transform="translate(127,107)"/>
<path d="M0 0 C1.32 0 2.64 0 4 0 C3.609375 6.0546875 3.609375 6.0546875 3 8 C1.02 8.99 1.02 8.99 -1 10 C-1.33 15.94 -1.66 21.88 -2 28 C-5.3 28 -8.6 28 -12 28 C-12 22.06 -12 16.12 -12 10 C-12.66 10 -13.32 10 -14 10 C-13.34 7.03 -12.68 4.06 -12 1 C-8.33333333 1 -4.66666667 1 -1 1 C-0.67 0.67 -0.34 0.34 0 0 Z " fill="#6724EC" transform="translate(67,118)"/>
<path d="M0 0 C3.3 0 6.6 0 10 0 C10 5.94 10 11.88 10 18 C10.66 18 11.32 18 12 18 C11.34 20.97 10.68 23.94 10 27 C7.03 27 4.06 27 1 27 C1 21.06 1 15.12 1 9 C0.34 9 -0.32 9 -1 9 C-0.67 6.03 -0.34 3.06 0 0 Z " fill="#601AEB" transform="translate(153,119)"/>
<path d="M0 0 C2.64 0 5.28 0 8 0 C8.19720979 3.58286819 8.38107522 7.16630057 8.5625 10.75 C8.61857422 11.76578125 8.67464844 12.7815625 8.73242188 13.828125 C8.78076172 14.8078125 8.82910156 15.7875 8.87890625 16.796875 C8.9260376 17.69760742 8.97316895 18.59833984 9.02172852 19.52636719 C9.00110175 21.87457408 8.67823071 23.76206702 8 26 C5.36 26 2.72 26 0 26 C0 20.06 0 14.12 0 8 C-0.66 7.67 -1.32 7.34 -2 7 C-1.34 4.69 -0.68 2.38 0 0 Z " fill="#F9F6FE" transform="translate(221,119)"/>
<path d="M0 0 C1.8125 1 1.8125 1 3 3 C3.36662674 5.80125747 3.22715523 8.13784404 3 11 C1 13 1 13 -2.5 13.25 C-6 13 -6 13 -8 11 C-8.56005895 3.94325718 -8.56005895 3.94325718 -6.8125 1 C-4.33474158 -0.36703913 -2.78844081 -0.41826612 0 0 Z " fill="#C0A5F7" transform="translate(242,134)"/>
<path d="M0 0 C2.97 0 5.94 0 9 0 C8.67 2.97 8.34 5.94 8 9 C5.03 9 2.06 9 -1 9 C-0.67 6.03 -0.34 3.06 0 0 Z " fill="#6825EC" transform="translate(155,107)"/>
<path d="M0 0 C5.94 0 11.88 0 18 0 C17.67 1.32 17.34 2.64 17 4 C17 3.01 17 2.02 17 1 C11.72 1 6.44 1 1 1 C0.67 3.97 0.34 6.94 0 10 C0.66 10 1.32 10 2 10 C0.68 15.28 -0.64 20.56 -2 26 C-2.33 26 -2.66 26 -3 26 C-2.22095672 15.44191344 -2.22095672 15.44191344 0 11 C-0.66 11 -1.32 11 -2 11 C-1.85892253 9.54119891 -1.71197585 8.08296449 -1.5625 6.625 C-1.48128906 5.81289062 -1.40007812 5.00078125 -1.31640625 4.1640625 C-1 2 -1 2 0 0 Z " fill="#763AED" transform="translate(192,108)"/>
<path d="M0 0 C2.64 0 5.28 0 8 0 C7.125 6.875 7.125 6.875 6 8 C3.66702567 8.04092937 1.33294775 8.04241723 -1 8 C-0.67 5.36 -0.34 2.72 0 0 Z " fill="#F4EFFD" transform="translate(222,108)"/>
<path d="M0 0 C0.66 0.66 1.32 1.32 2 2 C1.7578125 4.3828125 1.7578125 4.3828125 1.125 7.125 C0.92132813 8.03507813 0.71765625 8.94515625 0.5078125 9.8828125 C0.34023437 10.58148438 0.17265625 11.28015625 0 12 C2.97 12.33 5.94 12.66 9 13 C9 11.02 9 9.04 9 7 C9.66 7.66 10.32 8.32 11 9 C10.67 10.98 10.34 12.96 10 15 C5.71 15 1.42 15 -3 15 C-0.99107143 3.75 -0.99107143 3.75 0 0 Z " fill="#8C59F0" transform="translate(188,132)"/>
<path d="M0 0 C2.48810254 4.60401621 3.48255746 9.43992792 4.6875 14.5 C4.92533203 15.45003906 5.16316406 16.40007812 5.40820312 17.37890625 C5.62798828 18.29542969 5.84777344 19.21195313 6.07421875 20.15625 C6.27619873 20.98962891 6.47817871 21.82300781 6.6862793 22.68164062 C7.01525564 25.11273737 6.76004382 26.68760411 6 29 C3.21189367 24.81784051 2.4632181 20.47703074 1.3125 15.625 C1.07466797 14.67882812 0.83683594 13.73265625 0.59179688 12.7578125 C0.37201172 11.84 0.15222656 10.9221875 -0.07421875 9.9765625 C-0.27619873 9.14205566 -0.47817871 8.30754883 -0.6862793 7.44775391 C-1.03562407 4.72204907 -0.67502262 2.64868831 0 0 Z " fill="#854FEF" transform="translate(210,110)"/>
<path d="M0 0 C0.66 0 1.32 0 2 0 C3.42258812 3.82320557 4.24042276 6.91281305 4 11 C2.02 11 0.04 11 -2 11 C-1.85892253 9.54119891 -1.71197585 8.08296449 -1.5625 6.625 C-1.48128906 5.81289062 -1.40007812 5.00078125 -1.31640625 4.1640625 C-1 2 -1 2 0 0 Z " fill="#8C5AF0" transform="translate(201,121)"/>
<path d="M0 0 C2.475 0.495 2.475 0.495 5 1 C5 3.64 5 6.28 5 9 C3.35 8.67 1.7 8.34 0 8 C0 5.36 0 2.72 0 0 Z " fill="#ECE5FC" transform="translate(109,128)"/>
<path d="M0 0 C0.99 0.33 1.98 0.66 3 1 C3 3.97 3 6.94 3 10 C-1 9 -1 9 -2 8 C-2.1875 5.0625 -2.1875 5.0625 -2 2 C-1.34 1.34 -0.68 0.68 0 0 Z " fill="#F0EAFD" transform="translate(83,127)"/>
<path d="M0 0 C1.98 0.495 1.98 0.495 4 1 C4 3.64 4 6.28 4 9 C2.68 9 1.36 9 0 9 C-1.125 2.25 -1.125 2.25 0 0 Z " fill="#E4D8FB" transform="translate(38,127)"/>
<path d="M0 0 C2.12046792 3.53411321 2.53199289 6.94393835 3 11 C2.01 11.495 2.01 11.495 1 12 C0.63762737 10.37681021 0.28534843 8.7513642 -0.0625 7.125 C-0.25972656 6.22007812 -0.45695313 5.31515625 -0.66015625 4.3828125 C-1 2 -1 2 0 0 Z " fill="#9363F1" transform="translate(214,127)"/>
</svg>
